<svg xmlns="http://www.w3.org/2000/svg" viewBox="0 0 64 64" fill="none">
  <!-- Shield background -->
  <path d="M32 4 L56 14 L56 34 C56 48 44 58 32 62 C20 58 8 48 8 34 L8 14 Z"
        fill="#2563EB" opacity="0.15"/>
  <path d="M32 6 L54 15.5 L54 34 C54 47 43 56.5 32 60 C21 56.5 10 47 10 34 L10 15.5 Z"
        fill="#2563EB" opacity="0.9"/>
  <!-- Speed lines (camera flash) -->
  <rect x="18" y="26" width="12" height="2" rx="1" fill="white" opacity="0.8"/>
  <rect x="18" y="30" width="16" height="2" rx="1" fill="white" opacity="0.6"/>
  <rect x="18" y="34" width="10" height="2" rx="1" fill="white" opacity="0.4"/>
  <!-- Checkmark -->
  <path d="M26 38 L31 44 L42 30" stroke="white" stroke-width="3.5" stroke-linecap="round" stroke-linejoin="round"/>
</svg>
